<svg xmlns="http://www.w3.org/2000/svg" xmlns:svgjs="http://svgjs.com/svgjs" xmlns:xlink="http://www.w3.org/1999/xlink" width="288" height="288"><svg viewBox="0 0 48 48" style="width:48px;height:48px" width="288" height="288" display="block"><rect width="48" height="48" fill="#2e3136" style="transition:fill 150ms ease-out 0s" class="color6370f4 svgShape"/><path fill="#fff" d="M34.48 14.44a25.11 25.11 0 00-6.21-1.92 17.28 17.28 0 00-.79 1.62 23.6 23.6 0 00-6.92 0 17.38 17.38 0 00-.8-1.62 25.11 25.11 0 00-6.21 1.92A25.08 25.08 0 009.11 31.56a23.65 23.65 0 003.66 2.25 25.79 25.79 0 003.91 1.63 18.33 18.33 0 001.63-2.67 15.54 15.54 0 01-2.57-1.23l.63-.47a18 18 0 0015.27 0c.2.16.41.32.63.47a17 17 0 01-2.58 1.23 17.38 17.38 0 001.64 2.67A24.79 24.79 0 0039 31.6a26.49 26.49 0 00.14-2.66A25.17 25.17 0 0034.48 14.44zM19 28.12a2.89 2.89 0 01-2.72-3A2.94 2.94 0 0116.38 24 2.81 2.81 0 0117 23a2.54 2.54 0 01.92-.67A2.68 2.68 0 0119 22.06a2.72 2.72 0 011.12.24A2.63 2.63 0 0121 23a2.81 2.81 0 01.57 1 2.94 2.94 0 01.11 1.14A2.92 2.92 0 0121 27.17 2.85 2.85 0 0119 28.12zm10 0a2.85 2.85 0 01-2-.95 2.92 2.92 0 01-.74-2.07A2.83 2.83 0 0126.43 24 2.77 2.77 0 0127 23a2.73 2.73 0 01.91-.66A2.83 2.83 0 0129 22.11a2.78 2.78 0 011.1.23A2.65 2.65 0 0131.6 24a2.66 2.66 0 01.13 1.12 2.89 2.89 0 01-2.71 3zM42.6 20.64a1.5 1.5 0 10-1.5-1.5A1.5 1.5 0 0042.6 20.64zM20.82 6.14a.89.89 0 10-.89-.89A.89.89 0 0020.82 6.14zM4.93 32.06a1 1 0 000-2 1 1 0 100 2zM11.22 11.72A1.79 1.79 0 109.44 9.94 1.79 1.79 0 0011.22 11.72zM48 38.94V48H0V40.18a17 17 0 011.55.76c6.49-4.13 10.29-2.65 14.89 0s6.73.84 10.49 0a8.47 8.47 0 017 1.58C37.32 39.81 41.71 34.8 48 38.94z" class="color000 svgShape"/></svg></svg>